<?xml version="1.0" encoding="utf-8"?>
<!-- Generator: Adobe Illustrator 23.0.2, SVG Export Plug-In . SVG Version: 6.00 Build 0)  -->
<svg version="1.1" id="Capa_1" xmlns="http://www.w3.org/2000/svg" xmlns:xlink="http://www.w3.org/1999/xlink" x="0px" y="0px"
	 viewBox="0 0 238.5 38.1" style="enable-background:new 0 0 238.5 38.1;" xml:space="preserve">
<style type="text/css">
	.st0{fill:#FFFFFF;}
</style>
<g>
	<path class="st0" d="M26.5,13.6c-0.1,0-0.2,0-0.3,0c-6.4-0.2-11.6-5.4-11.6-11.9V1.3H3.4v0.4c0,7,3.1,13.3,8,17.5
		c-4.9,4.3-8,10.5-8,17.5v0.1h11.2v-0.1c0-6.5,5.2-11.7,11.6-11.9c0.1,0,0.2,0,0.4,0c0.1,0,0.1,0,0.2,0v0
		c6.5,0.1,11.7,5.4,11.7,11.9v0.1h11.2v-0.1C49.7,24,39.3,13.6,26.5,13.6z"/>
	<g>
		<g>
			<path class="st0" d="M59.1,14.2h8.7v3.3h0.1c1.8-2.2,5.1-3.9,9.6-3.9c5.6,0,9.7,2.7,9.7,8.4v15h-8.9V24.6c0-2.9-1.6-4.3-4.6-4.3
				c-3.1,0-5.5,1.7-5.5,5.5v11.2h-8.9V14.2z"/>
			<path class="st0" d="M106.5,13.2c10.3,0,16,4.2,16,12.3c0,8.1-5.7,12.3-16,12.3c-10.3,0-16-4.2-16-12.3
				C90.5,17.5,96.2,13.2,106.5,13.2z M99.9,25.6c0,4.3,2.5,6.4,6.5,6.4c4,0,6.6-2.1,6.6-6.4c0-4.3-2.5-6.4-6.6-6.4
				C102.5,19.1,99.9,21.3,99.9,25.6z"/>
			<path class="st0" d="M125.9,14.2h8.6v3.3h0.1c2.1-2.1,4.8-3.9,9.2-3.9c3.2,0,6,0.8,8.1,3.9c2.4-2.3,5-3.9,9.6-3.9
				c4.7,0,8.8,2.1,8.8,7.7v15.6h-8.9V23.7c0-2.2-1.4-3.4-3.8-3.4c-3.3,0-5,1.6-5,3.9v12.7h-8.9V23.7c0-2.2-1.4-3.4-3.8-3.4
				c-3.3,0-5,1.6-5,3.9v12.7h-8.9V14.2z"/>
			<path class="st0" d="M205,30.2c-1.1,3.8-5.4,7.7-15.1,7.7c-10.2,0-16-3.9-16-12.3c0-8.1,6.3-12.3,15.7-12.3
				c9.7,0,15.8,4.2,15.8,13.7v0.7h-22.3c0.5,2.9,2.6,5.1,7.1,5.1c2.9,0,4.3-1.2,5.4-2.6H205z M196.3,23c-0.5-2.5-2.4-4.7-6.6-4.7
				c-4.2,0-6.1,2.1-6.6,4.7H196.3z"/>
			<path class="st0" d="M209.2,14.2h8.7v3.3h0.1c1.8-2.2,5.1-3.9,9.6-3.9c5.6,0,9.7,2.7,9.7,8.4v15h-8.9V24.6c0-2.9-1.6-4.3-4.6-4.3
				c-3.1,0-5.5,1.7-5.5,5.5v11.2h-8.9V14.2z"/>
		</g>
	</g>
</g>
</svg>
