<svg id="Capa_1" data-name="Capa 1" xmlns="http://www.w3.org/2000/svg" viewBox="0 0 199.94 31.28"><defs><style>.cls-1{fill:#707070;opacity:0.7;}</style></defs><title>logo 707070</title><path class="cls-1" d="M19.75,10.5H19.5A10.22,10.22,0,0,1,9.57.34V0H0V.34a19.81,19.81,0,0,0,6.87,15A19.79,19.79,0,0,0,0,30.32v.09H9.56v-.09a10.18,10.18,0,0,1,9.93-10.17H20A10.23,10.23,0,0,1,30,30.32v.09h9.59v-.09A19.81,19.81,0,0,0,19.82,10.5Z" transform="translate(-0.03 0.04)"/><path class="cls-1" d="M47.61,11H55v2.8h.07c1.54-1.91,4.35-3.31,8.19-3.31,4.78,0,8.27,2.3,8.27,7.15V30.45H63.93V19.92c0-2.48-1.4-3.7-4-3.7s-4.75,1.47-4.75,4.67v9.56H47.61Z" transform="translate(-0.03 0.04)"/><path class="cls-1" d="M88.18,10.18c8.81,0,13.66,3.63,13.66,10.53S97,31.24,88.18,31.24,74.53,27.61,74.53,20.71,79.38,10.18,88.18,10.18Zm-5.6,10.53c0,3.67,2.16,5.5,5.6,5.5s5.61-1.83,5.61-5.5-2.15-5.49-5.61-5.49S82.58,17.1,82.58,20.71Z" transform="translate(-0.03 0.04)"/><path class="cls-1" d="M104.82,11h7.41v2.83h.07a10.51,10.51,0,0,1,7.83-3.34c2.7,0,5.17.72,6.9,3.34a10.63,10.63,0,0,1,8.19-3.34c4.07,0,7.55,1.76,7.55,6.61V30.45h-7.62V19.1c0-1.87-1.22-2.88-3.27-2.88-2.8,0-4.28,1.37-4.28,3.34V30.45H120V19.1c0-1.87-1.22-2.88-3.27-2.88-2.81,0-4.28,1.37-4.28,3.34V30.45h-7.62Z" transform="translate(-0.03 0.04)"/><path class="cls-1" d="M172.53,24.67c-.94,3.23-4.64,6.57-12.94,6.57-8.77,0-13.66-3.34-13.66-10.56,0-6.9,5.36-10.5,13.44-10.5,8.34,0,13.51,3.63,13.51,11.76v.57H153.77c.39,2.52,2.19,4.35,6.11,4.35a5.32,5.32,0,0,0,4.6-2.19ZM165,18.56c-.43-2.16-2.05-4-5.64-4s-5.21,1.83-5.64,4Z" transform="translate(-0.03 0.04)"/><path class="cls-1" d="M176,11h7.41v2.8h.07c1.54-1.91,4.35-3.31,8.19-3.31,4.78,0,8.27,2.3,8.27,7.15V30.45h-7.62V19.92c0-2.48-1.4-3.7-4-3.7s-4.74,1.47-4.74,4.67v9.56H176Z" transform="translate(-0.03 0.04)"/></svg>