<?xml version="1.0" encoding="utf-8"?>
<!-- Generator: Adobe Illustrator 23.0.2, SVG Export Plug-In . SVG Version: 6.00 Build 0)  -->
<svg version="1.1" id="Capa_1" xmlns="http://www.w3.org/2000/svg" xmlns:xlink="http://www.w3.org/1999/xlink" x="0px" y="0px"
	 viewBox="0 0 232.8 37" style="enable-background:new 0 0 232.8 37;" xml:space="preserve">
<style type="text/css">
	.st0{fill:#707070;}
</style>
<g>
	<path class="st0" d="M23.3,13.2c-0.1,0-0.2,0-0.3,0C16.6,13,11.5,7.8,11.5,1.4V1H0.4v0.4c0,6.9,3.1,13.1,8,17.3
		c-4.9,4.2-8,10.4-8,17.3v0.1h11.1V36c0-6.4,5.1-11.6,11.5-11.8c0.1,0,0.2,0,0.4,0c0.1,0,0.1,0,0.2,0l0,0C30,24.3,35.2,29.5,35.2,36
		v0.1h11.1V36C46.2,23.4,36,13.2,23.3,13.2z"/>
	<g>
		<g>
			<path class="st0" d="M55.5,13.7h8.6V17h0.1c1.8-2.2,5-3.8,9.5-3.8c5.5,0,9.6,2.7,9.6,8.3v14.8h-8.8V24.1c0-2.9-1.6-4.3-4.6-4.3
				c-3.1,0-5.5,1.7-5.5,5.4v11.1h-8.8L55.5,13.7L55.5,13.7z"/>
			<path class="st0" d="M102.4,12.8c10.2,0,15.8,4.2,15.8,12.2s-5.6,12.2-15.8,12.2C92.3,37.2,86.6,33,86.6,25S92.3,12.8,102.4,12.8
				z M96,25c0,4.2,2.5,6.4,6.5,6.4s6.5-2.1,6.5-6.4c0-4.2-2.5-6.4-6.5-6.4S96,20.8,96,25z"/>
			<path class="st0" d="M121.7,13.7h8.6V17h0.1c2.1-2.1,4.8-3.9,9.1-3.9c3.1,0,6,0.8,8,3.9c2.4-2.3,5-3.9,9.5-3.9
				c4.7,0,8.7,2,8.7,7.6v15.5h-8.8V23.1c0-2.2-1.4-3.3-3.8-3.3c-3.2,0-4.9,1.6-4.9,3.9v12.6h-8.8V23.1c0-2.2-1.4-3.3-3.8-3.3
				c-3.2,0-4.9,1.6-4.9,3.9v12.6h-8.8V13.7H121.7z"/>
			<path class="st0" d="M200,29.6c-1.1,3.7-5.4,7.6-15,7.6c-10.1,0-15.8-3.9-15.8-12.2c0-8,6.2-12.1,15.5-12.1
				c9.6,0,15.6,4.2,15.6,13.6v0.7h-22.1c0.5,2.9,2.5,5,7.1,5c2.8,0,4.3-1.2,5.3-2.5h9.4V29.6z M191.4,22.5c-0.5-2.5-2.4-4.6-6.5-4.6
				c-4.2,0-6,2.1-6.5,4.6H191.4z"/>
			<path class="st0" d="M204.1,13.7h8.6V17h0.1c1.8-2.2,5-3.8,9.5-3.8c5.5,0,9.6,2.7,9.6,8.3v14.8H223V24.1c0-2.9-1.6-4.3-4.6-4.3
				c-3.1,0-5.5,1.7-5.5,5.4v11.1h-8.8L204.1,13.7L204.1,13.7z"/>
		</g>
	</g>
</g>
</svg>
