<?xml version="1.0" encoding="utf-8"?>
<!-- Generator: Adobe Illustrator 23.0.2, SVG Export Plug-In . SVG Version: 6.00 Build 0)  -->
<svg version="1.1" id="Capa_1" xmlns="http://www.w3.org/2000/svg" xmlns:xlink="http://www.w3.org/1999/xlink" x="0px" y="0px"
	 viewBox="0 0 172.1 22.5" style="enable-background:new 0 0 172.1 22.5;" xml:space="preserve">
<style type="text/css">
	.st0{fill:#767575;}
</style>
<path class="st0" d="M0,0.9h8.4v3h0.1c1.8-2,4.9-3.5,9.3-3.5C23.1,0.3,27,2.8,27,8v13.7h-8.6V10.4c0-2.6-1.6-4-4.5-4
	c-3,0-5.4,1.6-5.4,5v10.2H0C0,21.7,0,0.9,0,0.9z M45.8,0c9.9,0,15.4,3.9,15.4,11.3s-5.5,11.2-15.4,11.2s-15.4-3.9-15.4-11.2
	C30.4,3.9,35.9,0,45.8,0z M39.5,11.3L39.5,11.3c0,3.9,2.4,5.9,6.3,5.9s6.3-2,6.3-5.9c0-3.9-2.4-5.9-6.3-5.9
	C41.9,5.4,39.5,7.3,39.5,11.3z M64.6,0.9H73v3H73c2.1-1.9,4.7-3.6,8.9-3.6c3,0,5.8,0.8,7.8,3.6c2.3-2.2,4.9-3.6,9.3-3.6
	c4.6,0,8.5,1.9,8.5,7.1v14.3h-8.6V9.5c0-2-1.4-3.1-3.7-3.1c-3.2,0-4.8,1.5-4.8,3.6v11.6h-8.6V9.5c0-2-1.4-3.1-3.7-3.1
	c-3.2,0-4.8,1.5-4.8,3.6v11.6h-8.6L64.6,0.9L64.6,0.9z M145,0.9h8.4v3h0.1c1.8-2,4.9-3.5,9.3-3.5c5.4,0,9.3,2.5,9.3,7.6v13.7h-8.6
	V10.4c0-2.6-1.6-4-4.5-4c-3,0-5.4,1.6-5.4,5v10.2H145L145,0.9L145,0.9z M141.1,15.5c-1.1,3.5-5.2,7-14.6,7
	c-9.9,0-15.4-3.6-15.4-11.3C111,3.8,117.1,0,126.2,0c9.4,0,15.3,3.9,15.3,12.6v0.6h-21.6c0.4,2.7,2.5,4.7,6.9,4.7
	c2.8,0,4.2-1.1,5.2-2.3C132,15.5,141.1,15.5,141.1,15.5z M132.6,9L132.6,9c-0.5-2.3-2.3-4.3-6.4-4.3c-4.1,0-5.9,2-6.4,4.3H132.6z"/>
</svg>
